<?xml version="1.0" encoding="UTF-8"?><svg xmlns="http://www.w3.org/2000/svg" width="1664" height="928" preserveAspectRatio="none" style="display: block;" version="1.1" viewBox="0 0 2048 1142"><defs><pattern id="_p3p9ornq" patternUnits="userSpaceOnUse" width="456.8" height="456.8" patternTransform="rotate(-30)"><text x="228.4" y="228.4" font-family="Arial,Helvetica,sans-serif" font-size="38.06666666666667" fill="rgba(0,0,0,0.045)" font-weight="600" text-anchor="middle" letter-spacing="3">VECTOSOLVE</text></pattern><linearGradient id="c" x1="1496.4" x2="1460.81" y1="763.074" y2="787.471" gradientUnits="userSpaceOnUse"><stop class="stop0" offset="0" stop-color="rgb(151,114,90)" stop-opacity="1"></stop><stop class="stop1" offset="1" stop-color="rgb(176,141,112)" stop-opacity="1"></stop></linearGradient><linearGradient id="b" x1="1401.12" x2="1472.32" y1="257.474" y2="295.29" gradientUnits="userSpaceOnUse"><stop class="stop0" offset="0" stop-color="rgb(126,92,70)" stop-opacity="1"></stop><stop class="stop1" offset="1" stop-color="rgb(142,114,95)" stop-opacity="1"></stop></linearGradient><linearGradient id="a" x1="1457.65" x2="1469.57" y1="504.93" y2="274.599" gradientUnits="userSpaceOnUse"><stop class="stop0" offset="0" stop-color="rgb(189,156,126)" stop-opacity="1"></stop><stop class="stop1" offset="1" stop-color="rgb(220,191,157)" stop-opacity="1"></stop></linearGradient></defs><path fill="rgb(241,213,99)" d="M700.26 747.191C663.916 711.997 647.565 654.564 646.721 605.13A254.12 254.12 0 0 1 718.891 420.989C747.087 391.848 774.969 376.236 809.457 356.523C823.862 348.289 838.768 333.267 853.864 324.291C1035.29 216.409 1303.24 311.859 1321.45 537.419C1324.62 576.725 1323.06 618.926 1309.46 656.996C1307.27 663.124 1306.54 667.671 1307.56 674.122C1313.49 721.357 1315.24 770.386 1305.33 817.201C1304.52 821.046 1302.54 832.981 1300.69 835.497L1298.72 835.962C1296.98 834.512 1296.44 834.103 1295.04 832.352C1291.22 832.923 1287.17 838.391 1282.58 840.17C1268.15 845.791 1252.68 853.166 1237.77 857.201C1157.14 879.012 1071.86 872.63 990.987 855.552C980.967 853.436 971.28 849.468 962.22 844.766C962.462 847.67 962.865 848.899 961.444 851.42L959.898 851.223C955.154 846.717 953.362 840.884 951.62 834.791C939.71 840.14 935.565 841.166 922.719 843.579C870.474 854.582 828.316 848.499 776.128 842.338C760.015 840.437 715.761 830.628 705.655 817.357C704.57 820.043 704.367 821.249 702.075 823.042L700.45 823.011C692.916 811.766 694.721 772.299 697.534 758.027A102 102 0 0 1 700.26 747.191Z"></path><path fill="rgb(186,130,98)" d="M965.524 427.575C956.91 435.871 947.136 445.1 939.72 454.473C905.887 497.229 887.349 550.556 885.965 604.965C885.85 609.51 886.281 638.575 887.701 641.968C892.248 647.142 897.498 659.589 901.662 666.019C939.956 725.168 1005.36 756.975 1075.3 755.251C1200.22 752.17 1289.51 637.566 1294.93 518.565C1295.61 503.582 1295.29 489.776 1295.06 474.792C1319.85 549.068 1316.4 623.781 1281.77 694.819C1274.27 710.205 1266.62 719.687 1258.7 733.224C1279.03 719.371 1284.22 709.636 1296.65 688.815C1297.6 710.525 1302.68 747.931 1299.12 768.188C1298.32 785.13 1296.42 803.662 1295.95 820.292C1295.94 824.064 1296.23 828.923 1295.04 832.352C1291.22 832.923 1287.17 838.391 1282.58 840.17C1268.15 845.791 1252.68 853.166 1237.77 857.201C1157.14 879.012 1071.86 872.63 990.987 855.552C980.967 853.436 971.28 849.468 962.22 844.766C962.462 847.67 962.865 848.899 961.444 851.42L959.898 851.223C955.154 846.717 953.362 840.884 951.62 834.791C939.71 840.14 935.565 841.166 922.719 843.579C919.242 837.232 915.74 814.48 908.841 803.869C899.511 789.518 897.142 788.253 880.44 783.399C864.892 788.545 843.803 788.334 827.674 786.154C850.625 782.071 866.796 779.32 888.521 770.366C888.045 769.466 883.9 762.739 883.028 761.534C871.591 745.728 858.168 696.067 863.095 677.992C869.388 668.342 869.329 663.393 878.332 652.901C874.472 633.611 876.018 598.887 876.939 578.757C880.937 564.708 883.276 548.57 887.568 535.226C900.837 493.971 927.516 450.008 965.524 427.575Z"></path><path fill="rgb(0,0,0)" d="M965.524 427.575C956.91 435.871 947.136 445.1 939.72 454.473C905.887 497.229 887.349 550.556 885.965 604.965C885.85 609.51 886.281 638.575 887.701 641.968C896.32 749.886 976.476 810.686 1082.23 802.38C1115.52 799.766 1140.39 791.264 1171.24 780.033C1143.99 801.327 1114.11 809.878 1080.07 813.702C1037.34 818.502 1002.49 809.502 964.165 791.338C962.899 805.966 961.728 820.155 962.684 834.854C962.907 838.283 962.744 841.37 962.22 844.766C962.462 847.67 962.865 848.899 961.444 851.42L959.898 851.223C955.154 846.717 953.362 840.884 951.62 834.791C939.71 840.14 935.565 841.166 922.719 843.579C919.242 837.232 915.74 814.48 908.841 803.869C899.511 789.518 897.142 788.253 880.44 783.399C864.892 788.545 843.803 788.334 827.674 786.154C850.625 782.071 866.796 779.32 888.521 770.366C888.045 769.466 883.9 762.739 883.028 761.534C871.591 745.728 858.168 696.067 863.095 677.992C869.388 668.342 869.329 663.393 878.332 652.901C874.472 633.611 876.018 598.887 876.939 578.757C880.937 564.708 883.276 548.57 887.568 535.226C900.837 493.971 927.516 450.008 965.524 427.575Z"></path><path fill="rgb(135,95,73)" d="M925.155 761.576C934.134 769.401 943.11 778.06 952.675 784.948C948.511 798.591 949.474 820.792 951.62 834.791C939.71 840.14 935.565 841.166 922.719 843.579C919.242 837.232 915.74 814.48 908.841 803.869C899.511 789.518 897.142 788.253 880.44 783.399C902.284 776.613 906.436 774.849 925.155 761.576ZM863.095 677.992C869.388 668.342 869.329 663.393 878.332 652.901C883.984 688.704 893.568 724.534 918.387 752.376C907.137 760.454 901.027 764.681 888.521 770.366C888.045 769.466 883.9 762.739 883.028 761.534C871.591 745.728 858.168 696.067 863.095 677.992Z"></path><path fill="rgb(231,213,189)" d="M1297.72 746.28C1298.9 753.168 1298.9 761.136 1299.12 768.188C1298.32 785.13 1296.42 803.662 1295.95 820.292C1293.14 819.874 1294.27 820.5 1292.43 818.425C1289.87 803.704 1295.24 762.211 1297.72 746.28Z"></path><path fill="rgb(186,130,98)" d="M659.849 617.578C676.813 656.251 706.838 689.288 747.259 705.815C786.716 721.948 837.518 717.652 861.525 677.553L861.931 676.204L863.095 677.992C858.168 696.067 871.591 745.728 883.028 761.534C883.9 762.739 888.045 769.466 888.521 770.366C866.796 779.32 850.625 782.071 827.674 786.154C843.803 788.334 864.892 788.545 880.44 783.399C897.142 788.253 899.511 789.518 908.841 803.869C915.74 814.48 919.242 837.232 922.719 843.579C870.474 854.582 828.316 848.499 776.128 842.338C760.015 840.437 715.761 830.628 705.655 817.357C706.138 814.62 706.462 803.902 706.694 800.439A518 518 0 0 1 709.848 765.837C720.859 776.862 756.404 788.967 771.868 789.059C779.018 789.127 780.435 789.001 787.035 786.138L787.059 784.765C721.472 765.963 678.197 714.555 664.379 648.652C662.28 638.64 661.09 627.766 659.849 617.578Z"></path><path fill="rgb(157,106,76)" d="M787.059 784.765C792.176 786.322 796.236 787.743 801.227 789.671C793.876 789.998 778.257 791.079 771.868 789.059C779.018 789.127 780.435 789.001 787.035 786.138Z"></path><path fill="rgb(0,0,0)" d="M700.26 747.191C663.916 711.997 647.565 654.564 646.721 605.13A254.12 254.12 0 0 1 718.891 420.989C747.087 391.848 774.969 376.236 809.457 356.523C823.862 348.289 838.768 333.267 853.864 324.291C1035.29 216.409 1303.24 311.859 1321.45 537.419C1324.62 576.725 1323.06 618.926 1309.46 656.996C1307.27 663.124 1306.54 667.671 1307.56 674.122C1313.49 721.357 1315.24 770.386 1305.33 817.201C1304.52 821.046 1302.54 832.981 1300.69 835.497L1298.72 835.962C1296.98 834.512 1296.44 834.103 1295.04 832.352C1296.23 828.923 1295.94 824.064 1295.95 820.292C1296.42 803.662 1298.32 785.13 1299.12 768.188C1302.68 747.931 1297.6 710.525 1296.65 688.815C1284.22 709.636 1279.03 719.371 1258.7 733.224C1266.62 719.687 1274.27 710.205 1281.77 694.819C1316.4 623.781 1319.85 549.068 1295.06 474.792C1294.64 473.319 1294.16 471.866 1293.61 470.438C1283.35 443.67 1271.44 422.3 1253.71 399.651C1174.76 298.761 1023.47 267.932 906.143 313.116C882.362 321.309 862.457 331.568 842.455 346.928C837.414 350.8 823.292 363.014 818.635 365.377C774.246 387.899 744.224 410.165 711.882 449.067C680.394 488.836 664.874 529.92 659.912 580.519C659.037 589.444 658.29 605.748 659.371 614.642Q659.555 616.119 659.849 617.578C661.09 627.766 662.28 638.64 664.379 648.652C678.197 714.555 721.472 765.963 787.059 784.765L787.035 786.138C780.435 789.001 779.018 789.127 771.868 789.059C756.404 788.967 720.859 776.862 709.848 765.837A518 518 0 0 0 706.694 800.439C706.462 803.902 706.138 814.62 705.655 817.357C704.57 820.043 704.367 821.249 702.075 823.042L700.45 823.011C692.916 811.766 694.721 772.299 697.534 758.027A102 102 0 0 1 700.26 747.191Z"></path><path fill="rgb(135,95,73)" d="M709.848 765.837C710.338 762.811 710.28 759.923 711.931 757.791C717.132 760.658 721.987 763.991 726.856 767.386C742.165 778.055 768.538 785.941 787.035 786.138C780.435 789.001 779.018 789.127 771.868 789.059C756.404 788.967 720.859 776.862 709.848 765.837Z"></path><path fill="rgb(247,237,158)" d="M906.143 313.116C909.217 314.384 912.234 315.598 915.237 317.033C891.793 339.765 867.624 366.353 841.648 385.368C807.098 410.658 776.789 428.162 747.376 459.93C703.904 506.881 696.146 547.082 684.503 606.742C680.11 583.271 677.711 562.406 682.642 538.915C688.319 511.868 694.857 486.736 708.195 462.54C710.693 458.009 711.927 454.35 711.882 449.067C744.224 410.165 774.246 387.899 818.635 365.377C823.292 363.014 837.414 350.8 842.455 346.928C862.457 331.568 882.362 321.309 906.143 313.116Z"></path><path fill="rgb(186,130,98)" d="M861.931 676.204C861.714 652.121 865.386 599.835 876.939 578.757C876.018 598.887 874.472 633.611 878.332 652.901C869.329 663.393 869.388 668.342 863.095 677.992Z"></path><path fill="rgb(247,237,158)" d="M1002.7 427.149C1001.87 430.801 994.185 437.211 991.195 440.043C940.251 488.314 912.029 540.894 911.956 612.517C911.954 614.767 912 618.065 910.458 619.515L908.838 617.812C902.148 596.564 903.479 559.23 907.364 537.48C916.473 486.479 953.928 444.967 1002.7 427.149Z"></path><path fill="url(#a)" d="M1387.94 303.527C1391.9 298.058 1384.95 274.249 1400.77 258.366C1420.59 236.992 1449.12 226.91 1476.45 240.956C1489.77 247.802 1487.25 254.553 1494.38 260.976L1498.14 258.292L1498.75 258.075C1502.79 256.59 1506.4 254.082 1510.29 252.818C1536.79 244.207 1565.19 260.543 1574.62 285.992C1579.32 298.673 1576.99 311.731 1575.87 324.662C1584.93 328.608 1592.02 331.238 1598.99 339.078C1619.52 362.178 1615.4 408.596 1589.9 426.745C1587.78 428.26 1583.76 430.277 1581.37 431.544C1600.76 486.593 1544.66 523.302 1498.38 495.859C1467.78 532.032 1416.16 519.355 1409.04 470.419C1394.06 476.01 1350.8 486.283 1334.83 488.057C1327.36 487.782 1316.5 484.733 1319.7 474.85L1321.96 459.889C1324.94 455.244 1334.73 447.509 1339.16 443.177C1350.3 432.273 1372.49 411.16 1379.91 398.25C1369.58 393.653 1361.92 390.558 1354.05 381.879A47.1 47.1 0 0 1 1342.21 347.189C1343.77 323.249 1362.68 301.252 1387.94 303.527Z"></path><path fill="rgb(231,213,189)" d="M1387.94 303.527C1391.9 298.058 1384.95 274.249 1400.77 258.366C1420.59 236.992 1449.12 226.91 1476.45 240.956C1489.77 247.802 1487.25 254.553 1494.38 260.976L1498.14 258.292C1498.21 263.283 1492.84 263.208 1493.1 274.11C1496.36 271.752 1498.35 269.058 1501.32 266.682C1508.66 260.808 1521.28 258.566 1530.45 260.21C1560.79 265.648 1573.09 295.652 1570.27 323.019L1567.53 323.319C1562.36 318.387 1558.02 309.029 1553.19 303.418C1531.62 278.365 1512.13 269.966 1482.75 284.382C1470.03 275.961 1457.43 269.389 1441.89 273.275C1416.92 279.52 1404.23 296.238 1401.69 320.549C1368.56 326.363 1362.63 353.869 1366.49 383.034C1339.29 360.912 1350.14 311.167 1387.11 308.781C1390.15 308.585 1392.9 309.985 1395.96 309.313L1396.99 304.784C1394.24 306.425 1395.19 306.414 1392.55 306.105L1393.03 305.666L1388.73 305.212Z"></path><path fill="url(#b)" d="M1387.94 303.527C1391.9 298.058 1384.95 274.249 1400.77 258.366C1420.59 236.992 1449.12 226.91 1476.45 240.956C1489.77 247.802 1487.25 254.553 1494.38 260.976L1498.14 258.292C1498.21 263.283 1492.84 263.208 1493.1 274.11C1492.74 272.19 1492.36 270.275 1491.94 268.365C1482.89 224.869 1386.99 242.059 1396.99 304.784C1394.24 306.425 1395.19 306.414 1392.55 306.105L1393.03 305.666L1388.73 305.212Z"></path><path fill="rgb(135,95,73)" d="M1498.14 258.292L1498.75 258.075C1502.79 256.59 1506.4 254.082 1510.29 252.818C1536.79 244.207 1565.19 260.543 1574.62 285.992C1579.32 298.673 1576.99 311.731 1575.87 324.662C1584.93 328.608 1592.02 331.238 1598.99 339.078C1619.52 362.178 1615.4 408.596 1589.9 426.745C1587.78 428.26 1583.76 430.277 1581.37 431.544C1600.76 486.593 1544.66 523.302 1498.38 495.859C1467.78 532.032 1416.16 519.355 1409.04 470.419C1394.06 476.01 1350.8 486.283 1334.83 488.057C1340.96 481.255 1418.93 455.723 1424.24 459.355C1424.07 463.756 1419.68 465.776 1416.31 467.534C1421.63 503.404 1452.27 516.656 1484.96 499.749C1488.21 498.071 1490.47 494.731 1491.94 491.408C1491.57 488.127 1488.21 482.466 1486.55 479.269C1495.14 483.484 1502.14 490.217 1511.32 493.488C1533.99 501.569 1565.89 492.246 1574.22 467.931C1577.3 458.971 1578.49 445.304 1574.67 436.313C1574.32 435.484 1571.15 434.895 1570.05 434.569C1570.25 429.713 1584.73 420.73 1589.96 415.025A52.73 52.73 0 0 0 1603.8 377.007C1603.05 361.255 1594.71 343.566 1580.65 334.896C1577.19 332.759 1567.87 329.93 1565.17 327.46C1569.45 325.435 1568.89 326.523 1570.27 323.019C1573.09 295.652 1560.79 265.648 1530.45 260.21C1521.28 258.566 1508.66 260.808 1501.32 266.682C1498.35 269.058 1496.36 271.752 1493.1 274.11C1492.84 263.208 1498.21 263.283 1498.14 258.292ZM1379.91 398.25C1369.58 393.653 1361.92 390.558 1354.05 381.879A47.1 47.1 0 0 1 1342.21 347.189C1343.77 323.249 1362.68 301.252 1387.94 303.527L1388.73 305.212L1393.03 305.666L1392.55 306.105C1395.19 306.414 1394.24 306.425 1396.99 304.784L1395.96 309.313C1392.9 309.985 1390.15 308.585 1387.11 308.781C1350.14 311.167 1339.29 360.912 1366.49 383.034C1386.13 397.798 1404.35 377.111 1383.19 409.842C1372.57 424.051 1339.63 456.51 1321.96 459.889C1324.94 455.244 1334.73 447.509 1339.16 443.177C1350.3 432.273 1372.49 411.16 1379.91 398.25Z"></path><path fill="rgb(231,213,189)" d="M1383.19 409.842C1386.34 410.611 1391.88 411.802 1394.74 412.818C1381.62 426.462 1361.5 443.704 1347.31 456.953C1345.81 458.353 1332.78 461.342 1329.8 463.645C1325.8 466.733 1323.08 473.993 1319.7 474.85L1321.96 459.889C1339.63 456.51 1372.57 424.051 1383.19 409.842ZM1408.34 332.298C1415.85 311.774 1435.1 298.296 1455.82 310.877L1455.55 311.673C1451.76 311.919 1447.98 312.226 1444.2 312.592C1453.36 313.327 1470.8 316.349 1471.38 328.343C1464.18 329.393 1445 316.044 1432.31 333.299C1426.69 340.938 1425.29 347.764 1423.3 356.823C1421.7 355.16 1418.11 351.265 1416.51 350.004L1414.53 350.482C1408.04 347.989 1406.85 338.204 1408.34 332.298Z"></path><path fill="rgb(186,130,98)" d="M1408.34 332.298C1415.85 311.774 1435.1 298.296 1455.82 310.877L1455.55 311.673C1451.76 311.919 1447.98 312.226 1444.2 312.592C1428.32 316.749 1421 320.512 1415.06 336.955C1414.89 343.017 1414.89 344.219 1416.51 350.004L1414.53 350.482C1408.04 347.989 1406.85 338.204 1408.34 332.298Z"></path><path fill="rgb(179,145,115)" d="M1416.51 350.004L1414.53 350.482C1408.04 347.989 1406.85 338.204 1408.34 332.298C1408.51 335.335 1408.23 338.958 1410 341.118C1412.42 340.385 1413.35 338.885 1415.06 336.955C1414.89 343.017 1414.89 344.219 1416.51 350.004ZM1530.1 405.25C1531.39 405.644 1533.33 406.388 1533.91 407.756C1543.97 431.277 1534.67 445.045 1515.82 458.432C1503.49 459.443 1497.88 460.023 1486.41 455.07C1480.96 451.902 1479.78 449.585 1476.33 444.342C1481.14 444.066 1485.3 443.988 1490.08 444.937C1523.46 451.566 1530.26 434.175 1530.1 405.25Z"></path><path fill="rgb(135,95,73)" d="M1421.9 408.192C1417.9 424.018 1367.07 455.975 1351.02 461.875L1350.93 460.945C1360.45 449.268 1407.42 417.636 1421.9 408.192Z"></path><path fill="rgb(211,182,149)" d="M1421.99 655.394C1413.67 603.521 1480.32 570.234 1508.49 622.016C1549.46 579.647 1613.96 629.313 1586.38 693.269C1595.94 698.683 1603.86 712.122 1606.83 722.485A58.4 58.4 0 0 1 1601.41 767.259C1593.26 781.421 1582.19 788.353 1567.23 793.215C1566.29 811.824 1562.06 828.18 1547.33 840.604C1513.36 869.265 1463.52 861.241 1446.04 819.545C1428.55 823.123 1414.18 824.343 1398.28 813.902A56.13 56.13 0 0 1 1373.97 777.443C1369.35 754.132 1375.82 736.564 1393.67 721.587C1376.49 705.848 1345.37 684.066 1331.94 669.383C1329.2 667.36 1326.65 663.951 1324.41 661.246C1321.78 648.169 1330.26 646.586 1340.65 646.185C1348.98 647.359 1361.47 651.01 1368.74 651.362C1383.52 652.079 1408.26 656.668 1421.99 655.394Z"></path><path fill="rgb(135,95,73)" d="M1421.99 655.394C1413.67 603.521 1480.32 570.234 1508.49 622.016C1549.46 579.647 1613.96 629.313 1586.38 693.269C1595.94 698.683 1603.86 712.122 1606.83 722.485A58.4 58.4 0 0 1 1601.41 767.259C1593.26 781.421 1582.19 788.353 1567.23 793.215C1566.29 811.824 1562.06 828.18 1547.33 840.604C1513.36 869.265 1463.52 861.241 1446.04 819.545C1428.55 823.123 1414.18 824.343 1398.28 813.902A56.13 56.13 0 0 1 1373.97 777.443C1369.35 754.132 1375.82 736.564 1393.67 721.587C1376.49 705.848 1345.37 684.066 1331.94 669.383C1329.2 667.36 1326.65 663.951 1324.41 661.246C1326.23 659.683 1329.23 656.741 1331.53 657.376C1340.91 659.959 1347.28 663.918 1356.94 666.554C1377.54 687.201 1411.07 692.778 1437.52 700.683C1422.73 704.287 1420.36 705.313 1405.36 703.947C1410.96 718.867 1420.15 729.703 1426.45 744.299C1421.55 742.101 1416.19 739.823 1411.42 737.438C1409.93 769.793 1417.9 790.676 1454.11 792.115C1456.49 792.21 1458.88 792.281 1461.26 792.328C1469.06 804.448 1473.59 818.499 1489.44 820.424C1527.45 825.041 1540.33 809.146 1547.75 776.614C1571.77 770.016 1590.73 763.234 1599.12 736.901C1599.25 734.612 1599.3 732.318 1599.28 730.025C1599 714.961 1587.66 703.388 1577.54 693.845C1584.21 683.742 1585.39 677.044 1585.06 664.817C1572.87 662.363 1548.64 608.817 1507.05 647.723C1492.11 627.021 1464.58 623.415 1447.84 644.249C1443.9 649.15 1441.61 655.234 1438.36 660.645C1437.93 661.396 1436.36 663.888 1435.76 664.14C1420.37 670.505 1349.6 658.871 1340.65 646.185C1348.98 647.359 1361.47 651.01 1368.74 651.362C1383.52 652.079 1408.26 656.668 1421.99 655.394Z"></path><path fill="rgb(179,145,115)" d="M1324.41 661.246C1326.23 659.683 1329.23 656.741 1331.53 657.376C1340.91 659.959 1347.28 663.918 1356.94 666.554C1377.54 687.201 1411.07 692.778 1437.52 700.683C1422.73 704.287 1420.36 705.313 1405.36 703.947C1410.96 718.867 1420.15 729.703 1426.45 744.299C1421.55 742.101 1416.19 739.823 1411.42 737.438C1409.93 769.793 1417.9 790.676 1454.11 792.115C1456.49 792.21 1458.88 792.281 1461.26 792.328C1469.06 804.448 1473.59 818.499 1489.44 820.424C1527.45 825.041 1540.33 809.146 1547.75 776.614C1571.77 770.016 1590.73 763.234 1599.12 736.901C1600.51 785.136 1561.27 782.636 1556.75 790.262C1562.3 799.326 1560.36 805.919 1557.27 815.695C1553.17 828.638 1538.71 837.488 1527.06 843.125C1501.27 855.602 1470.52 845.65 1455.2 821.883C1452.32 817.431 1450.37 806.71 1445.58 805.324C1444.66 808.391 1444.9 809.736 1445.02 812.892C1441.12 815.775 1428.38 814.476 1423.34 813.919C1388.56 810.078 1373.16 769.923 1387.25 740.372C1390.69 733.157 1393.92 730.594 1399.6 725.237C1402.88 728.656 1406.18 732.978 1410.88 733.36L1411.97 731.929C1409.5 716.22 1346 671.983 1331.94 669.383C1329.2 667.36 1326.65 663.951 1324.41 661.246Z"></path><path fill="rgb(231,213,189)" d="M1438.36 660.645C1434.94 660.258 1432.02 660.421 1429.67 658.177C1428.49 654.801 1429.05 652.807 1428.95 649.458C1428.35 630.146 1439.41 614.19 1457.84 607.922A39.52 39.52 0 0 1 1488.87 610.105C1501.33 616.464 1505.14 624.655 1506.78 637.657C1528.98 592.757 1584.69 619.644 1585.06 664.817C1572.87 662.363 1548.64 608.817 1507.05 647.723C1492.11 627.021 1464.58 623.415 1447.84 644.249C1443.9 649.15 1441.61 655.234 1438.36 660.645Z"></path><path fill="rgb(135,95,73)" d="M1356.94 666.554C1369.12 669.457 1435.65 694.293 1442.68 700.674L1442 701.409L1437.52 700.683C1411.07 692.778 1377.54 687.201 1356.94 666.554Z"></path><path fill="url(#c)" d="M1451.9 758.616C1454.75 762.726 1457.11 766.712 1459.79 770.905C1470.99 788.441 1490.87 791.339 1507.8 779.706C1510.07 777.144 1512.18 774.097 1515.26 773.042L1516.36 775.156C1514.62 786.02 1512.7 792.573 1503.52 799.636C1494.03 806.94 1479.9 804.665 1471.73 796.382C1456.77 779.564 1449.96 787.616 1451.9 758.616Z"></path><path fill="rgb(179,145,115)" d="M1507.8 779.706C1510.07 777.144 1512.18 774.097 1515.26 773.042L1516.36 775.156C1514.62 786.02 1512.7 792.573 1503.52 799.636C1494.03 806.94 1479.9 804.665 1471.73 796.382C1488.11 790.593 1493.45 800.804 1509.71 781.32Z"></path><path fill="rgb(186,130,98)" d="M1507.8 779.706C1510.07 777.144 1512.18 774.097 1515.26 773.042L1516.36 775.156C1514.42 777.344 1512.27 780.33 1509.71 781.32Z"></path><g id="_qunanlrj" style="mix-blend-mode:multiply"><rect width="100%" height="100%" fill="url(#_p3p9ornq)"></rect></g><g><text x="2040.0" y="1136.0" font-family="Arial,Helvetica,sans-serif" font-size="22.84" fill="rgba(0,0,0,0.12)" font-weight="700" text-anchor="end" letter-spacing="0.5">vectosolve.com</text></g></svg>